<?xml version="1.0" encoding="UTF-8"?>
<svg version="1.1" xmlns="http://www.w3.org/2000/svg" width="100" height="100">
<path d="M0 0 C3.43555992 2.89773947 6.75255977 5.89344655 10 9 C4.62512532 32.29112359 -11.21164041 52.02055077 -31.02783203 64.8203125 C-34.38265959 66.82706253 -37.86362922 68.48557127 -41.4375 70.0625 C-42.0871875 70.34939697 -42.736875 70.63629395 -43.40625 70.93188477 C-47.57975622 72.66673931 -51.47305529 73.83253546 -56 74 C-68.31352048 67.16163836 -76.22636427 46.42832952 -80.06640625 33.375 C-80.81299655 30.258797 -81.45197685 27.15661337 -82 24 C-82.13019531 23.29875 -82.26039062 22.5975 -82.39453125 21.875 C-83.8588748 12.50320126 -83.23489231 3.11949385 -81.6875 -6.1875 C-81.51105957 -7.30209595 -81.51105957 -7.30209595 -81.33105469 -8.43920898 C-80.94921875 -10.54296875 -80.94921875 -10.54296875 -80 -14 C-58.43317588 -28.37788275 -18.44937859 -13.815844 0 0 Z " fill="#7A8AFF" transform="translate(90,26)"/>
<path d="M0 0 C12.13816185 5.28936964 24.96764114 20.89708675 30 33 C30.34933594 33.83402344 30.69867188 34.66804688 31.05859375 35.52734375 C33.3421174 41.95165694 33.43508497 48.24781595 33 55 C32.94307983 55.95676636 32.94307983 55.95676636 32.88500977 56.93286133 C32.32231303 63.74002526 30.42005793 70.04950277 28.4375 76.5625 C28.10814453 77.66658203 27.77878906 78.77066406 27.43945312 79.90820312 C26.63313872 82.60760352 25.81986701 85.30469119 25 88 C7.46090377 73.60287684 -0.63383549 52.11368703 -3 30 C-3.69166433 19.69154121 -2.02226877 10.05115727 0 0 Z " fill="#A5A7FF" transform="translate(10,12)"/>
<path d="M0 0 C-0.50770677 5.66571326 -2.06206308 9.85725674 -4.6875 14.875 C-5.05125732 15.58043945 -5.41501465 16.28587891 -5.78979492 17.01269531 C-17.1879731 38.81004816 -35.41259567 55.27394632 -58.79296875 63.40625 C-61 64 -61 64 -64 64 C-56.52229811 24.69549576 -56.52229811 24.69549576 -39 12 C-32.83795219 8.30598118 -26.16785578 6.3256851 -19.3125 4.3125 C-18.29349609 4.00505859 -17.27449219 3.69761719 -16.22460938 3.38085938 C-4.91315646 0 -4.91315646 0 0 0 Z " fill="#607FFF" transform="translate(99,36)"/>
<path d="M0 0 C2.23788969 1.10565571 4.44465012 2.24241666 6.63671875 3.4375 C15.69996778 8.0793689 23.94138021 9.30131743 34 10 C31.61559851 11.92763565 29.23015308 13.83188819 26.75390625 15.640625 C18.74428681 21.52291236 14.15412388 28.05265625 10 37 C8.98306712 33.70855312 9.01713684 30.92568093 9.1875 27.5 C9.26230568 17.264089 5.29003921 8.58547347 0 0 Z " fill="#8C97FF" transform="translate(33,34)"/>
</svg>
